<?xml version="1.0" encoding="UTF-8" standalone="no"?>
<svg
   id="Layer_1"
   data-name="Layer 1"
   viewBox="0 0 500.99999 78.999997"
   version="1.1"
   sodipodi:docname="dailytrust1.svg"
   width="501"
   height="79"
   inkscape:version="1.1.1 (1:1.1+202109281954+c3084ef5ed)"
   xmlns:inkscape="http://www.inkscape.org/namespaces/inkscape"
   xmlns:sodipodi="http://sodipodi.sourceforge.net/DTD/sodipodi-0.dtd"
   xmlns="http://www.w3.org/2000/svg"
   xmlns:svg="http://www.w3.org/2000/svg"
   xmlns:rdf="http://www.w3.org/1999/02/22-rdf-syntax-ns#"
   xmlns:cc="http://creativecommons.org/ns#"
   xmlns:dc="http://purl.org/dc/elements/1.1/">
  <sodipodi:namedview
     id="namedview45"
     pagecolor="#ffffff"
     bordercolor="#666666"
     borderopacity="1.0"
     inkscape:pageshadow="2"
     inkscape:pageopacity="0.0"
     inkscape:pagecheckerboard="0"
     showgrid="false"
     width="502px"
     showguides="true"
     inkscape:guide-bbox="true"
     inkscape:zoom="1.1506986"
     inkscape:cx="15.642671"
     inkscape:cy="47.362533"
     inkscape:window-width="1366"
     inkscape:window-height="704"
     inkscape:window-x="0"
     inkscape:window-y="0"
     inkscape:window-maximized="1"
     inkscape:current-layer="Layer_1"
     height="62px">
    <sodipodi:guide
       position="271.59199,41.577221"
       orientation="1,0"
       id="guide49" />
  </sodipodi:namedview>
  <defs
     id="defs4">
    <style
       id="style2">.cls-1{fill:#0a699a;}.cls-2{fill:#fdc013;}</style>
  </defs>
  <title
     id="title6">Daily Trust Logo </title>
  <path
     class="cls-1"
     d="m 125.06702,1.8115724 a 8.185401,8.185401 0 0 1 8.29874,8.2987376 c 0,4.816793 -3.14823,8.336516 -8.23577,8.355405 -5.08754,0.01889 -8.1854,-3.324532 -8.24837,-8.292441 a 8.0720647,8.0720647 0 0 1 8.1854,-8.3617016 z"
     id="path8"
     style="stroke-width:0.629646" />
  <path
     class="cls-1"
     d="m 483.17202,31.474206 a 2.3548769,2.3548769 0 0 1 -1.20892,0.239266 h -8.27355 c -0.29594,0 -0.56668,-0.03778 -0.56039,0.415566 0.0504,3.330829 -0.0819,6.661657 0.0756,9.98619 a 8.4813347,8.4813347 0 0 0 0.68002,2.990819 5.5471833,5.5471833 0 0 0 3.77788,3.148231 15.60893,15.60893 0 0 0 3.3686,0.547792 c 1.00744,0.06926 2.12191,0.358899 2.1345,1.35374 0,2.600439 0,5.207174 0,7.81391 0,0.730389 -1.25929,1.10188 -1.97709,1.095584 -3.96677,-0.06296 -7.90206,-0.390381 -11.68623,-1.712638 -5.50311,-1.888938 -8.29874,-5.931267 -8.95357,-11.60438 a 63.487229,63.487229 0 0 1 -0.18889,-7.007962 c 0,-2.134501 0,-4.262705 0,-6.390909 0,-0.497421 -0.11334,-0.629647 -0.62965,-0.629647 -2.51858,0 -4.9805,0 -7.4739,0 -1.01373,0 -1.15225,-0.144818 -1.15225,-1.152252 q 0,-4.407524 0,-8.84653 c 0,-1.183735 0.3589,-1.542633 1.51744,-1.542633 2.39896,0 4.79161,0 7.19056,0 0.49113,0 0.62965,-0.113336 0.62965,-0.629646 0,-4.11159 0,-8.216884 0,-12.3284735 0,-0.2644514 0,-0.5289028 0,-0.7933542 0.0756,-0.7618719 0.39038,-0.9822482 1.13966,-0.8311331 a 41.204049,41.204049 0 0 1 6.67425,1.8889388 c 2.40525,0.919283 3.71491,2.720072 4.40752,5.087541 a 11.831053,11.831053 0 0 1 0.45335,3.664542 c 0,1.10188 0,2.210058 0,3.311939 0,0.491124 0.16371,0.598164 0.62965,0.591867 2.79562,0 5.59125,0 8.38688,0 a 1.2592925,1.2592925 0 0 1 1.03892,0.352602 z"
     id="path10"
     style="stroke-width:0.629646" />
  <path
     class="cls-1"
     d="m 17.536041,30.126763 q 0,-13.298128 0,-26.58996 c 0,-0.245562 0,-0.4974205 0,-0.7429825 0.05667,-0.7681684 0.358899,-1.0641021 1.114474,-1.0578057 5.83682,0 11.679937,-0.1322257 17.510461,0.069261 5.345697,0.1825974 10.559168,1.1585491 15.350776,3.6456517 7.303896,3.7778775 12.189951,9.6146985 14.066296,17.7056525 1.492262,6.422391 1.190032,12.788115 -1.448186,18.889386 A 26.186987,26.186987 0 0 1 49.685777,56.20671 36.796526,36.796526 0 0 1 36.752844,58.933078 c -5.950157,0.239266 -11.900314,0.05667 -17.856767,0.08815 a 1.2592925,1.2592925 0 0 1 -1.259293,-1.007433 4.4075236,4.4075236 0 0 1 -0.100743,-1.190032 z m 13.367389,0.07556 v 0 15.28781 c 0,0.862616 0.251859,1.171142 1.038917,1.164846 2.619328,0 5.238656,0.119633 7.851688,-0.258155 A 14.758908,14.758908 0 0 0 51.127667,38.614395 16.370802,16.370802 0 0 0 52.789933,27.620771 C 51.694349,21.103933 47.02867,15.185258 38.446592,14.291161 c -2.165983,-0.226673 -4.331966,-0.163708 -6.497949,-0.182598 -1.038916,0 -1.057805,0 -1.057805,1.038917 z"
     id="path12"
     style="stroke-width:0.629646" />
  <path
     class="cls-1"
     d="m 319.2877,1.8493512 h 23.50469 c 1.04522,0 1.20263,0.1574115 1.20263,1.2592924 0,3.4189791 0,6.8442544 0,10.2695304 0,0.963358 -0.0315,1.001137 -0.98225,1.001137 h -15.77264 c -0.98225,0 -1.03262,0.05037 -1.03262,1.026324 v 42.30593 c 0,1.259292 -0.22667,1.492261 -1.43559,1.259292 a 40.297359,40.297359 0 0 1 -7.73206,-2.15339 6.9261085,6.9261085 0 0 1 -4.06122,-4.350855 14.041111,14.041111 0 0 1 -0.78705,-4.810498 V 15.544157 c 0,-1.133364 -0.0504,-1.190032 -1.19004,-1.190032 h -15.15558 c -0.18889,0 -0.37779,0 -0.56668,0 -0.62965,0 -0.84373,-0.220376 -0.85002,-0.875208 0,-1.750416 0,-3.500833 0,-5.244953 V 2.9827144 c 0,-0.8248366 0.30223,-1.1270668 1.12706,-1.1270668 z"
     id="path14"
     style="stroke-width:0.629646" />
  <path
     class="cls-1"
     d="m 110.21997,45.150122 v 11.635863 c 0,1.20892 -0.21408,1.423 -1.4293,1.423 -1.9582,0 -3.9227,-0.03778 -5.8809,0 a 1.8889387,1.8889387 0 0 1 -2.05894,-1.328553 c -0.36519,-0.938173 -0.39668,-0.919284 -1.315961,-0.491124 a 26.873301,26.873301 0 0 1 -17.793803,1.93931 10.395459,10.395459 0 0 1 -6.649063,-4.369745 11.812163,11.812163 0 0 1 -1.800788,-5.754966 15.91116,15.91116 0 0 1 1.309664,-8.185401 c 1.580412,-3.286754 4.300483,-5.194582 7.713165,-6.195719 a 26.785151,26.785151 0 0 1 11.018809,-0.680018 23.01357,23.01357 0 0 1 4.168258,0.912987 c 0.472235,0.151115 0.459642,0 0.402974,-0.384084 A 2.9530408,2.9530408 0 0 0 95.442168,31.077529 C 89.775352,29.717493 84.322616,30.095281 79.071366,32.790167 a 2.8837797,2.8837797 0 0 1 -0.579274,0.239265 c -0.81854,0.220377 -1.202624,-0.06926 -1.202624,-0.919283 0,-3.07897 0,-6.15794 0,-9.243207 a 1.5048545,1.5048545 0 0 1 0.988544,-1.555226 22.358738,22.358738 0 0 1 4.489378,-1.259292 41.852585,41.852585 0 0 1 12.762929,-0.497421 19.380511,19.380511 0 0 1 8.959871,3.091563 c 3.36231,2.323395 5.03716,5.622741 5.60385,9.595809 a 20.476095,20.476095 0 0 1 0.15111,2.846001 c -0.0189,3.356014 -0.0252,6.712028 -0.0252,10.061746 z M 90.745007,43.261184 a 9.5832156,9.5832156 0 0 0 -2.613031,0.170004 4.0486253,4.0486253 0 0 0 -2.675997,1.674859 1.8070847,1.8070847 0 0 0 0.365195,2.518585 3.9919571,3.9919571 0 0 0 1.888939,0.912987 17.768617,17.768617 0 0 0 9.929521,-1.127067 0.51001345,0.51001345 0 0 0 0.333712,-0.579274 c 0,-0.667425 0,-1.33485 0,-1.995979 0,-0.365195 -0.100743,-0.522606 -0.478531,-0.629646 a 29.114842,29.114842 0 0 0 -6.749808,-0.969655 z"
     id="path16"
     style="stroke-width:0.629646" />
  <path
     class="cls-1"
     d="m 166.59849,77.70913 h -5.8809 c -0.80594,0 -0.99484,-0.321119 -0.62964,-1.020027 q 6.85684,-12.668482 13.7074,-25.324372 a 0.75557547,0.75557547 0 0 0 0,-0.831133 q -7.55576,-13.8837 -15.11151,-27.786288 l -0.17001,-0.295934 c -0.39668,-0.629646 -0.13852,-1.108178 0.62965,-1.114474 1.44818,0 2.89637,0 4.33826,0 2.24784,0 4.48938,0 6.73092,0 a 1.7189342,1.7189342 0 0 1 1.70634,0.982248 q 4.21233,7.895764 8.46874,15.772638 c 0.0756,0.151115 0.10704,0.390381 0.28334,0.396677 0.1763,0.0063 0.24556,-0.251858 0.32742,-0.402973 q 4.16826,-7.700574 8.32392,-15.401147 a 2.2793193,2.2793193 0 0 1 2.26673,-1.360036 c 3.40638,0.05667 6.81277,0 10.21286,0 a 1.1522526,1.1522526 0 0 1 0.98225,0.346306 0.69261085,0.69261085 0 0 1 0.10074,0.881504 q -7.12759,13.222571 -14.24889,26.445142 -7.54946,14.003333 -15.02966,27.937404 a 1.3033677,1.3033677 0 0 1 -1.34115,0.793355 c -1.90153,-0.04408 -3.78417,-0.01889 -5.66681,-0.01889 z"
     id="path18"
     style="stroke-width:0.629646" />
  <path
     class="cls-1"
     d="m 407.94189,32.254968 c 0,3.387496 0.0378,6.768697 0,10.156193 a 19.796077,19.796077 0 0 1 -1.46708,7.398343 13.568876,13.568876 0 0 1 -8.29873,7.801317 27.62258,27.62258 0 0 1 -11.29586,1.366333 22.119472,22.119472 0 0 1 -8.0028,-1.888939 c -4.32567,-2.021165 -6.92611,-5.427551 -8.11614,-9.998782 a 23.233946,23.233946 0 0 1 -0.68632,-5.817931 q 0,-9.444694 0,-18.832719 c 0,-1.662266 0.62965,-2.285616 2.26673,-2.285616 h 8.27355 c 1.88894,0 2.24154,0.346306 2.24154,2.273023 q 0,9.186538 0,18.373077 a 11.025105,11.025105 0 0 0 0.68002,4.136776 4.9930946,4.9930946 0 0 0 3.84714,3.217492 8.4561489,8.4561489 0 0 0 2.95304,0.04407 c 2.51858,-0.377788 4.06122,-1.983386 4.59642,-4.640493 a 15.640412,15.640412 0 0 0 0.27704,-3.116748 q 0,-8.852826 0,-17.686763 c 0,-0.251858 0,-0.497421 0,-0.742983 0,-1.360035 0.51631,-1.851159 1.88894,-1.851159 h 9.35654 c 1.15226,0 1.53004,0.384084 1.53004,1.548929 0,3.513426 0,7.033149 0,10.552871 z"
     id="path20"
     style="stroke-width:0.629646" />
  <path
     class="cls-1"
     d="m 445.87178,26.940753 v 3.651949 c 0,1.378925 -0.59187,1.763009 -1.83857,1.152252 a 18.996427,18.996427 0 0 0 -4.88605,-1.700045 25.456597,25.456597 0 0 0 -8.84653,-0.06926 3.6519481,3.6519481 0 0 0 -1.53634,0.579275 c -0.98855,0.673721 -0.98855,1.718934 0,2.34858 a 11.258075,11.258075 0 0 0 3.3749,1.171142 c 1.9582,0.478531 3.96677,0.7115 5.89349,1.341147 a 13.852217,13.852217 0 0 1 6.29646,3.866028 10.89288,10.89288 0 0 1 2.65081,6.718325 12.592925,12.592925 0 0 1 -0.81854,5.880896 c -1.19632,2.801925 -3.40638,4.495674 -6.17053,5.572369 a 24.058782,24.058782 0 0 1 -7.00796,1.454482 54.351062,54.351062 0 0 1 -12.50478,-0.516309 16.912298,16.912298 0 0 1 -3.46305,-0.912987 1.6433767,1.6433767 0 0 1 -1.17114,-1.649674 q 0,-4.508267 0,-9.010237 c 0,-0.692611 0.51631,-0.957062 1.15225,-0.598164 4.76642,2.675996 9.89174,2.827112 15.11151,2.121908 a 4.5208599,4.5208599 0 0 0 1.61819,-0.522607 c 0.96966,-0.535199 0.99484,-1.410407 0.0378,-1.970792 a 11.333632,11.333632 0 0 0 -3.26157,-1.108178 c -2.05264,-0.472234 -4.16196,-0.7115 -6.17053,-1.372628 -2.73267,-0.900395 -5.15051,-2.266727 -6.86314,-4.659383 a 12.958119,12.958119 0 0 1 -1.0767,-12.133282 c 1.44819,-2.858594 3.85344,-4.590121 6.74351,-5.736078 a 22.320959,22.320959 0 0 1 7.36686,-1.467075 45.523422,45.523422 0 0 1 10.17509,0.560385 17.038227,17.038227 0 0 1 3.70232,1.108177 2.1722795,2.1722795 0 0 1 1.47966,2.247837 c -0.0189,1.215218 0.0126,2.436731 0.0126,3.651948 z"
     id="path22"
     style="stroke-width:0.629646" />
  <path
     class="cls-1"
     d="m 153.26258,30.781595 v 27.616284 c 0,0.724093 0,0.724093 -0.74928,0.598164 a 39.906978,39.906978 0 0 1 -7.13389,-1.888939 c -2.51858,-0.912987 -3.77788,-2.77674 -4.4516,-5.181988 a 16.0182,16.0182 0 0 1 -0.49112,-4.237519 q 0,-21.974654 0,-43.9619001 c 0,-0.1511151 0,-0.2959337 0,-0.4470488 0,-0.9381729 0.38408,-1.2970712 1.32855,-1.2970712 2.26673,0 4.52716,0 6.79388,0 1.13966,0 2.27932,0 3.41898,0 1.13966,0 1.2593,0.2329691 1.2593,1.2592924 q 0.0315,13.7640667 0.0252,27.5407257 z"
     id="path24"
     style="stroke-width:0.629646" />
  <path
     class="cls-1"
     d="M 336.05518,40.169621 V 22.9425 c 0,-1.888939 0.10704,-1.9582 1.97079,-1.964496 h 8.10355 c 1.13336,0 1.53004,0.358898 1.67486,1.485965 0.0819,0.585571 0.15741,1.164845 0.25186,1.750416 0,0.138522 0,0.340009 0.14481,0.396677 0.14482,0.05667 0.24557,-0.144818 0.34001,-0.245562 a 12.189951,12.189951 0 0 1 4.26271,-2.997116 15.445222,15.445222 0 0 1 11.33363,-0.289637 1.3474429,1.3474429 0 0 1 0.99484,1.372629 c 0,2.795629 0,5.591258 0,8.386888 0,0.79965 -0.30853,1.020026 -1.01373,0.787057 a 13.537394,13.537394 0 0 0 -11.23289,1.03262 19.468661,19.468661 0 0 0 -3.70861,2.738961 1.1522526,1.1522526 0 0 0 -0.40298,0.938173 q 0,10.703986 0,21.452047 c 0,1.108178 -0.14482,1.259293 -1.25929,1.259293 h -10.31361 c -1.03262,0 -1.17114,-0.144819 -1.17114,-1.196328 z"
     id="path26"
     style="stroke-width:0.629646" />
  <path
     class="cls-1"
     d="m 118.75797,40.037395 v -16.94378 c 0,-2.021164 0.11963,-2.140797 2.11561,-2.140797 h 9.0732 c 1.10188,0 1.41041,0.277044 1.51745,1.385222 a 6.7938828,6.7938828 0 0 1 0.0315,0.79965 v 33.893857 c 0,0.358898 0,0.724093 -0.0441,1.082991 -0.0567,0.680018 -0.28964,0.912987 -0.98225,0.919284 -1.59301,0 -3.19231,0 -4.79161,0 -1.88894,0 -3.84084,0 -5.76126,0 -0.82484,0 -1.0767,-0.264452 -1.13966,-1.089288 0,-0.283341 0,-0.572978 0,-0.856319 z"
     id="path28"
     style="stroke-width:0.629646" />
  <path
     class="cls-2"
     d="m 205.52951,59.059008 1.9645,-3.299347 10.57806,-17.749727 c 0.13852,-0.239265 0.24556,-0.440752 0.62964,-0.421863 2.38007,0.119633 4.76643,0.220376 7.24094,0.327416 -2.8586,5.03717 -5.66682,10.023968 -8.53171,15.023359 a 1.1396597,1.1396597 0 0 0 0.62965,0.06926 h 22.25799 a 0.7681684,0.7681684 0 0 1 0.80595,0.453346 c 0.97595,1.750416 1.98338,3.48824 2.97822,5.23236 0.063,0.10704 0.11964,0.214079 0.19519,0.371491 z"
     id="path30"
     style="stroke-width:0.629646" />
  <path
     class="cls-2"
     d="m 280.33149,53.001811 c -2.87749,-5.03717 -5.7046,-10.030265 -8.56319,-15.067434 0.50372,-0.03148 0.94447,-0.07556 1.38522,-0.09445 1.93301,-0.08815 3.86603,-0.157412 5.79904,-0.251859 a 0.56668161,0.56668161 0 0 1 0.62965,0.32112 q 6.2272,10.46472 12.4607,20.923144 a 1.662266,1.662266 0 0 1 0.10074,0.226673 h -38.64139 c -0.063,-0.163708 0.0693,-0.264452 0.13223,-0.384085 0.99484,-1.74412 2.00227,-3.475647 2.97822,-5.23236 a 0.78076132,0.78076132 0 0 1 0.80595,-0.447049 q 11.10696,0 22.20762,0 z"
     id="path32"
     style="stroke-width:0.629646" />
  <path
     class="cls-1"
     d="m 224.94151,22.023216 c 0.063,0.220377 -0.10075,0.371492 -0.1763,0.541496 -0.62965,1.498558 -1.10818,3.028599 -0.73039,4.684568 a 4.4075236,4.4075236 0 0 0 2.68229,3.148231 c 1.84486,0.831133 3.77788,0.881505 5.79275,0.862616 9.27468,-0.08185 24.42397,-6.246091 32.7416,-13.959257 a 38.572128,38.572128 0 0 0 4.76013,-5.119024 9.5013616,9.5013616 0 0 0 1.97708,-4.4578955 4.7286432,4.7286432 0 0 0 -2.04635,-4.7286432 7.6187194,7.6187194 0 0 0 -3.14823,-1.2592925 0.32111958,0.32111958 0 0 1 -0.18259,-0.094447 c 2.51858,0.056668 4.9805,0.3085267 7.20315,1.6118943 1.72523,1.0137305 2.32969,2.613032 2.17228,4.52086 a 11.616973,11.616973 0 0 1 -2.89637,6.6238789 53.047695,53.047695 0 0 1 -17.37194,13.468132 75.966818,75.966818 0 0 1 -18.03307,6.365724 28.516678,28.516678 0 0 1 -7.97132,0.717796 12.964416,12.964416 0 0 1 -4.8042,-1.20892 6.6238783,6.6238783 0 0 1 -2.27303,-1.813381 4.0423288,4.0423288 0 0 1 -0.86261,-3.50713 15.741156,15.741156 0 0 1 3.14823,-6.397206 z"
     id="path34"
     style="stroke-width:0.629646" />
  <path
     class="cls-1"
     d="m 265.27665,14.102267 a 17.315271,17.315271 0 0 0 -2.73897,-2.890076 15.791527,15.791527 0 0 0 -25.54474,9.048016 15.590041,15.590041 0 0 0 0.3526,7.669091 c 0.0756,0.251859 0.15111,0.440752 -0.22038,0.497421 -0.98225,0.138522 -1.96449,0.277044 -2.94674,0.453345 -0.41557,0.07556 -0.56039,-0.08185 -0.62965,-0.465938 -1.52374,-6.239795 -0.45334,-11.963279 3.50713,-17.05082 4.16826,-5.3394003 9.77841,-7.8642817 16.54081,-7.5557551 5.60385,0.2707479 10.23805,2.6948859 13.91518,6.9261091 0.24556,0.277044 0.30853,0.472234 0,0.774464 -0.62965,0.692611 -1.25929,1.416704 -1.84486,2.134501 z"
     id="path36"
     style="stroke-width:0.629646" />
  <path
     class="cls-1"
     d="m 238.03185,36.555451 c 1.4356,-0.30223 2.81452,-0.591867 4.16826,-0.969655 0.25816,-0.06926 0.40297,0.113336 0.56668,0.239266 a 15.778934,15.778934 0 0 0 25.2866,-9.929521 17.428608,17.428608 0 0 0 0.20148,-2.971931 c 0,-0.19519 -0.0378,-0.39038 0.15112,-0.547792 1.10188,-0.92558 2.14709,-1.926717 3.18601,-2.953041 1.57411,6.296463 -0.62965,16.055979 -9.63359,21.099446 a 19.519033,19.519033 0 0 1 -23.92656,-3.966772 z"
     id="path38"
     style="stroke-width:0.629646" />
  <path
     class="cls-1"
     d="m 224.9478,22.023216 0.063,-0.09445 v 0.03778 l -0.0944,0.05667 z"
     id="path40"
     style="stroke-width:0.629646" />
  <path
     class="cls-1"
     d="m 225.1367,21.765061 v 0.03148 c 0,0 0,0 0,-0.03778 h 0.0315 z"
     id="path42"
     style="stroke-width:0.629646" />
  <metadata
     id="metadata47">
    <rdf:RDF>
      <cc:Work
         rdf:about="">
        <dc:title>Daily Trust Logo </dc:title>
      </cc:Work>
    </rdf:RDF>
  </metadata>
</svg>
